<svg width="674" height="645" viewBox="0 0 674 645" fill="none" xmlns="http://www.w3.org/2000/svg">
<g filter="url(#filter0_d_8_16)">
<path fill-rule="evenodd" clip-rule="evenodd" d="M354.743 26.1663C417.828 6.68842 489.339 29.1472 543.68 66.6475C598.736 104.642 635.751 165.321 650.828 230.493C665.126 292.298 638.49 352.432 624.086 414.212C608.012 483.156 621.132 573.051 561.916 611.847C502.395 650.844 425.579 597.447 354.743 590.677C293.188 584.794 230.381 601.235 174.472 574.819C110.787 544.73 41.799 502.331 23.6877 434.264C5.71019 366.7 42.2766 294.331 85.1427 239.099C120.462 193.59 189.833 197.646 235.04 161.941C283.577 123.606 295.646 44.4125 354.743 26.1663Z" stroke="url(#paint0_radial_8_16)" stroke-width="5" shape-rendering="crispEdges"/>
</g>
<defs>
<filter id="filter0_d_8_16" x="0.498055" y="0.498047" width="672.922" height="643.974" filterUnits="userSpaceOnUse" color-interpolation-filters="sRGB">
<feFlood flood-opacity="0" result="BackgroundImageFix"/>
<feColorMatrix in="SourceAlpha" type="matrix" values="0 0 0 0 0 0 0 0 0 0 0 0 0 0 0 0 0 0 127 0" result="hardAlpha"/>
<feOffset/>
<feGaussianBlur stdDeviation="8"/>
<feComposite in2="hardAlpha" operator="out"/>
<feColorMatrix type="matrix" values="0 0 0 0 0.294118 0 0 0 0 0.752941 0 0 0 0 0.784314 0 0 0 1 0"/>
<feBlend mode="normal" in2="BackgroundImageFix" result="effect1_dropShadow_8_16"/>
<feBlend mode="normal" in="SourceGraphic" in2="effect1_dropShadow_8_16" result="shape"/>
</filter>
<radialGradient id="paint0_radial_8_16" cx="0" cy="0" r="1" gradientUnits="userSpaceOnUse" gradientTransform="translate(496.5 -115.5) rotate(99.6591) scale(718.181 727.28)">
<stop stop-color="#FEAC5E"/>
<stop offset="0.5" stop-color="#C779D0"/>
<stop offset="1" stop-color="#4BC0C8"/>
</radialGradient>
</defs>
</svg>
