<svg width="702" height="686" viewBox="0 0 702 686" fill="none" xmlns="http://www.w3.org/2000/svg">
<g filter="url(#filter0_d_8_14)">
<path fill-rule="evenodd" clip-rule="evenodd" d="M365.991 19.3636C433.446 16.3823 504.49 31.4728 556.7 74.2894C606.896 115.454 619.396 184.187 641.432 245.249C661.673 301.338 692.018 357.775 680.086 416.199C668.368 473.572 618.159 512.115 578.188 554.908C539.723 596.088 505.345 645.627 451.202 661.24C397.146 676.827 341.315 654.765 287.38 638.765C233.588 622.807 181.022 604.685 138.23 568.395C90.2939 527.741 45.2026 480.202 28.8501 419.512C11.5457 355.29 16.9808 284.761 45.6335 224.736C74.0614 165.182 130.261 126.297 185.816 90.6816C241.318 55.101 300.128 22.2746 365.991 19.3636Z" stroke="url(#paint0_radial_8_14)" stroke-width="5" shape-rendering="crispEdges"/>
</g>
<defs>
<filter id="filter0_d_8_14" x="0.500122" y="0.500244" width="700.782" height="684.561" filterUnits="userSpaceOnUse" color-interpolation-filters="sRGB">
<feFlood flood-opacity="0" result="BackgroundImageFix"/>
<feColorMatrix in="SourceAlpha" type="matrix" values="0 0 0 0 0 0 0 0 0 0 0 0 0 0 0 0 0 0 127 0" result="hardAlpha"/>
<feOffset/>
<feGaussianBlur stdDeviation="8"/>
<feComposite in2="hardAlpha" operator="out"/>
<feColorMatrix type="matrix" values="0 0 0 0 0.294118 0 0 0 0 0.752941 0 0 0 0 0.784314 0 0 0 1 0"/>
<feBlend mode="normal" in2="BackgroundImageFix" result="effect1_dropShadow_8_14"/>
<feBlend mode="normal" in="SourceGraphic" in2="effect1_dropShadow_8_14" result="shape"/>
</filter>
<radialGradient id="paint0_radial_8_14" cx="0" cy="0" r="1" gradientUnits="userSpaceOnUse" gradientTransform="translate(494.5 591) rotate(-121.511) scale(700.261 713.288)">
<stop stop-color="#FEAC5E"/>
<stop offset="0.5" stop-color="#C779D0"/>
<stop offset="1" stop-color="#4BC0C8"/>
</radialGradient>
</defs>
</svg>
